<svg width="27px" height="94px" viewBox="0 0 27 94" version="1.1" xmlns="http://www.w3.org/2000/svg" xmlns:xlink="http://www.w3.org/1999/xlink">
    <!-- Generator: Sketch 64 (93537) - https://sketch.com -->
    <title>Group 27</title>
    <desc>Created with Sketch.</desc>
    <g id="Components" stroke="none" stroke-width="1" fill="none" fill-rule="evenodd">
        <g id="Group-27" transform="translate(0.008445, 0.739100)" fill="#FFFFFF">
            <path d="M8.05485538,1.81200008 C7.88485538,15.5730001 8.02585538,29.3390001 8.47485538,43.0940001 C8.55385538,45.5010001 12.3048554,45.5130001 12.2248554,43.0940001 C11.7758554,29.3390001 11.6348554,15.5730001 11.8048554,1.81200008 C11.8348554,-0.602999922 8.08485538,-0.604999922 8.05485538,1.81200008" id="Fill-4"></path>
            <path d="M26.1715554,43.4331001 C26.2155554,43.2631001 26.2445554,43.0831001 26.2385554,42.8801001 C26.2525554,42.6871001 26.2325554,42.5141001 26.1985554,42.3521001 C25.7905554,37.1291001 21.5595554,31.9321001 15.8235554,33.3921001 C10.7955554,34.6731001 7.66655538,40.6511001 8.61055538,45.5881001 C8.66055538,45.8471001 8.72455538,46.0901001 8.79155538,46.3301001 C8.63255538,46.4791001 8.48855538,46.6661001 8.37655538,46.9141001 C5.68655538,52.8441001 4.37455538,59.2581001 2.78355538,65.5441001 C2.19255538,67.8851001 5.80955538,68.8841001 6.40055538,66.5411001 C7.36055538,62.7461001 8.18755538,58.8511001 9.32155538,55.0681001 C9.51955538,59.3631001 9.58255538,63.7431001 8.68455538,67.4421001 C7.90555538,70.6461001 5.71855538,73.4731001 4.38855538,76.5381001 C2.66055538,80.5221001 1.37155538,84.6651001 0.0925553794,88.8081001 C-0.620444621,91.1211001 2.99755538,92.1101001 3.70955538,89.8051001 C5.14655538,85.1441001 6.55755538,80.4131001 8.72455538,76.0241001 C8.76155538,75.9471001 8.80255538,75.8741001 8.84155538,75.7981001 C9.45455538,81.2091001 10.6815554,86.6731001 11.4815554,91.9141001 C11.8435554,94.2911001 15.4595554,93.2811001 15.0965554,90.9161001 C14.0205554,83.8571001 12.1195554,76.3781001 12.2205554,69.2241001 C12.4115554,68.6631001 12.5755554,68.0861001 12.6735554,67.4761001 C13.1785554,64.3491001 13.2135554,60.9671001 13.1155554,57.5641001 C14.9675554,61.2261001 16.4715554,64.9271001 17.1785554,68.9921001 C17.5925554,71.3651001 21.2075554,70.3601001 20.7955554,67.9951001 C20.2495554,64.8531001 19.2605554,61.9111001 17.9615554,59.0031001 C16.8945554,56.6161001 14.8545554,53.8331001 13.7585554,51.1061001 C18.6975554,52.2631001 25.3865554,48.8851001 26.1715554,43.4331001 M15.4595554,37.5761001 C19.2875554,35.2771001 22.3885554,39.3291001 22.4885554,42.8801001 C22.2255554,46.7631001 14.4675554,49.8891001 12.5475554,45.7951001 C11.2905554,43.1101001 13.0305554,39.0331001 15.4595554,37.5761001" id="Fill-6"></path>
        </g>
    </g>
</svg>