<svg width="114px" height="128px" viewBox="0 0 114 128" version="1.1" xmlns="http://www.w3.org/2000/svg" xmlns:xlink="http://www.w3.org/1999/xlink">
    <!-- Generator: Sketch 64 (93537) - https://sketch.com -->
    <title>Group 3</title>
    <desc>Created with Sketch.</desc>
    <defs>
        <polygon id="path-1" points="0 0.994 113.58 0.994 113.58 128.9998 0 128.9998"></polygon>
    </defs>
    <g id="Components" stroke="none" stroke-width="1" fill="none" fill-rule="evenodd">
        <g id="Group-3" transform="translate(0.000000, -0.994000)">
            <mask id="mask-2" fill="white">
                <use xlink:href="#path-1"></use>
            </mask>
            <g id="Clip-2"></g>
            <path d="M113.305,16.0558 C111.097,14.7438 101.73,13.7888 88.838,13.6088 C84.395,13.5458 79.838,13.5488 75.338,13.5488 L62.167,13.5488 L49.235,13.5488 L5.445,13.5488 L5.445,4.2658 L5.515,4.2658 L73.04,4.2658 L101.997,4.3218 L107.952,4.2858 L110.77,4.2428 L111.457,4.2268 C111.515,4.2268 111.497,4.2138 111.525,4.2058 L111.658,4.1608 C111.682,4.2008 111.702,4.2418 111.718,4.2838 L111.733,4.3278 C111.733,4.3128 111.733,4.5408 111.75,4.6338 L111.785,5.3838 C111.84,6.3738 111.894,7.3448 111.945,8.2958 C112.062,10.1978 112.195,12.0158 112.36,13.7688 C112.582,16.2348 113.068,16.0618 113.195,13.0338 L113.58,2.2428 L109.62,2.1438 L82.93,1.7208 C70.18,1.5638 57.43,1.3758 44.625,1.3278 L2.173,0.9938 C2.173,6.2648 2.167,11.5458 2.158,16.8338 L13.658,16.7428 C13.658,19.7138 13.653,22.6868 13.642,25.6608 C13.676,29.0628 13.71,32.4728 13.742,35.8908 C13.76,36.9128 13.722,38.0628 13.682,39.0778 C13.253,49.9818 13.202,61.1268 13.207,72.3038 L13.207,89.0718 C13.194,91.8628 13.181,94.6468 13.167,97.4258 C13.141,99.8578 13.115,102.2838 13.09,104.7028 L9.343,107.4938 C6.601,109.4708 4.076,111.7338 1.81,114.2438 C1.077,115.0738 1.428,115.4128 2.56,114.7188 C4.343,113.6318 6.165,112.4938 7.977,111.2438 L13.158,107.6628 L17.628,107.7158 L19.245,107.7158 C23.783,107.6568 27.207,107.2508 27.975,106.7438 L32.755,110.4598 L36.665,113.4938 L38.61,115.0158 L39.58,115.7788 L40.08,116.1838 C40.057,116.3268 40.037,117.5378 40.017,118.4558 L39.963,121.3268 L39.905,125.7028 L37.575,125.7238 L33.863,125.8088 C33.305,125.8178 32.749,125.7968 32.193,125.7488 C27.238,125.3758 22.193,125.2878 17.113,125.2768 L9.492,125.2768 L5.675,125.2768 L3.865,125.2768 L3.722,125.2558 C3.755,124.8008 3.8,122.5448 3.872,121.0958 L3.872,120.2488 C3.798,117.2368 3.162,115.1568 2.475,115.6658 C1.787,116.1758 1.253,117.4158 0.827,119.2858 C0.589,120.3448 0.41,121.4148 0.29,122.4938 C0.222,123.0938 0.165,123.7228 0.12,124.3808 C0.097,124.7748 0.077,124.8688 0.06,125.6658 C0.046,126.3338 0.033,127.0088 0.017,127.6928 C0.017,128.1098 0.017,128.5278 0,128.9588 L7.17,128.9998 L43.19,128.9998 L43.19,122.9258 L43.19,114.6138 L28.79,103.7988 L27.858,103.7988 L27.858,103.6838 C28.055,99.7388 28.235,95.6438 28.335,91.4658 C28.475,84.0508 28.615,76.5508 28.758,69.0468 C28.824,64.4518 28.892,59.8528 28.963,55.2498 C31.022,54.5378 34.432,52.0678 38.325,48.3808 C39.968,46.8268 41.605,45.1868 43.225,43.5668 L69.54,17.2588 C78.276,17.2588 86.988,17.2778 95.629,17.3968 L104.925,17.3968 C110.642,17.2468 114.344,16.6718 113.305,16.0558 L113.305,16.0558 Z M22.165,103.7918 L16.687,103.7788 L16.687,103.7418 L16.687,103.5138 L16.707,103.0538 L16.745,102.1168 L16.85,98.1698 C16.912,94.4418 16.91,90.6188 16.91,86.8388 L16.91,17.3968 L16.97,17.3968 L26.178,17.3968 L26.178,36.5218 L26.153,36.5468 L26.12,43.3988 C26.12,44.6718 26.12,45.8988 26.175,47.0558 L26.175,60.7438 C26.158,68.8498 26.139,76.9598 26.12,85.0688 C26.059,91.3238 26.336,97.5768 26.948,103.8008 L22.165,103.7918 Z M29.323,17.0678 C34.695,17.1698 40.094,17.2288 45.522,17.2428 L32.92,29.8438 L29.17,33.5668 C29.222,28.0668 29.272,22.5668 29.323,17.0678 L29.323,17.0678 Z M62.803,19.4938 C62.378,19.9438 61.858,20.4108 61.395,20.8208 C51.04,29.8858 41.415,40.5808 31.233,50.0238 C31.003,50.2388 30.77,50.4888 30.545,50.7208 C29.955,51.3368 29.435,51.9288 29,52.4708 C29.069,47.3618 29.117,42.2448 29.147,37.1208 L31.167,35.2088 C35.865,30.7338 40.593,26.2718 45.235,21.7068 L49.81,17.2718 C54.83,17.2828 59.86,17.2828 64.897,17.2718 L62.803,19.4938 Z" id="Fill-1" fill="#FFFFFF" mask="url(#mask-2)"></path>
        </g>
    </g>
</svg>