<svg width="28" height="24" viewBox="0 0 28 24" fill="none" xmlns="http://www.w3.org/2000/svg">
<path fill-rule="evenodd" clip-rule="evenodd" d="M0 2C0 1.46957 0.210714 0.96086 0.585788 0.585787C0.960861 0.210714 1.46957 0 2 0H26.0001C26.5305 0 27.0392 0.210714 27.4143 0.585787C27.7893 0.96086 28.0001 1.46957 28.0001 2C28.0001 2.53043 27.7893 3.03914 27.4143 3.41421C27.0392 3.78929 26.5305 4 26.0001 4H2C1.46957 4 0.960861 3.78929 0.585788 3.41421C0.210714 3.03914 0 2.53043 0 2ZM0 12C0 11.4696 0.210714 10.9609 0.585788 10.5858C0.960861 10.2107 1.46957 10 2 10H26.0001C26.5305 10 27.0392 10.2107 27.4143 10.5858C27.7893 10.9609 28.0001 11.4696 28.0001 12C28.0001 12.5304 27.7893 13.0391 27.4143 13.4142C27.0392 13.7893 26.5305 14 26.0001 14H2C1.46957 14 0.960861 13.7893 0.585788 13.4142C0.210714 13.0391 0 12.5304 0 12ZM0 22C0 21.4696 0.210714 20.9609 0.585788 20.5858C0.960861 20.2107 1.46957 20 2 20H26.0001C26.5305 20 27.0392 20.2107 27.4143 20.5858C27.7893 20.9609 28.0001 21.4696 28.0001 22C28.0001 22.5304 27.7893 23.0391 27.4143 23.4142C27.0392 23.7893 26.5305 24 26.0001 24H2C1.46957 24 0.960861 23.7893 0.585788 23.4142C0.210714 23.0391 0 22.5304 0 22Z" fill="white"/>
</svg>
